<svg id="svg" version="1.1" xmlns="http://www.w3.org/2000/svg" xmlns:xlink="http://www.w3.org/1999/xlink" width="400" height="225" viewBox="0, 0, 400,225"><g id="svgg"><path id="path0" d="M198.974 22.521 C 200.072 23.590,204.943 28.153,205.958 29.063 C 206.086 29.177,207.493 30.494,209.085 31.990 C 213.279 35.930,214.167 36.737,214.167 36.612 C 214.167 36.550,210.909 33.464,206.927 29.753 C 199.614 22.937,196.405 20.019,198.974 22.521 M196.287 22.357 C 195.919 22.737,195.669 23.099,195.731 23.161 C 195.793 23.224,195.432 23.612,194.928 24.025 C 194.424 24.438,193.968 24.732,193.914 24.678 C 193.861 24.625,193.638 24.792,193.419 25.051 L 193.021 25.521 193.542 25.106 L 194.063 24.690 193.563 25.255 C 193.289 25.566,192.982 25.770,192.881 25.707 C 192.780 25.645,192.724 25.673,192.755 25.770 C 192.838 26.024,191.979 26.897,191.589 26.954 C 191.183 27.014,190.188 27.923,190.311 28.122 C 190.360 28.202,189.945 28.704,189.388 29.238 C 188.375 30.209,187.828 30.529,188.354 29.844 C 188.507 29.643,188.378 29.706,188.067 29.984 C 187.437 30.545,187.294 30.835,187.865 30.394 C 188.168 30.159,188.163 30.189,187.837 30.572 C 187.621 30.825,187.349 30.973,187.232 30.900 C 187.115 30.828,187.077 30.864,187.149 30.979 C 187.303 31.229,186.438 32.093,185.965 32.162 C 185.558 32.222,184.563 33.131,184.686 33.331 C 184.822 33.551,183.398 34.856,183.173 34.717 C 183.065 34.651,182.753 34.843,182.478 35.144 C 182.204 35.446,182.096 35.625,182.240 35.542 C 182.781 35.230,182.459 35.635,181.232 36.808 C 179.915 38.068,179.174 38.554,179.893 37.687 C 180.189 37.329,180.116 37.360,179.634 37.797 C 179.265 38.133,179.011 38.455,179.070 38.514 C 179.202 38.647,177.275 40.625,177.014 40.625 C 176.909 40.625,176.949 40.461,177.102 40.260 C 177.255 40.060,177.080 40.170,176.713 40.506 C 176.346 40.841,176.094 41.164,176.153 41.223 C 176.288 41.357,174.356 43.333,174.090 43.333 C 173.982 43.333,174.072 43.122,174.289 42.865 C 174.645 42.442,174.628 42.446,174.113 42.901 C 173.543 43.405,173.356 43.681,173.750 43.438 C 174.346 43.069,173.800 43.744,172.552 44.917 C 171.122 46.262,170.348 46.719,171.265 45.677 C 171.750 45.126,171.744 45.127,171.093 45.716 C 170.428 46.318,170.216 46.607,170.625 46.354 C 171.124 46.046,170.754 46.516,169.771 47.440 C 168.613 48.528,167.983 48.899,168.644 48.103 L 169.060 47.604 168.488 48.109 C 167.918 48.613,167.731 48.889,168.125 48.646 C 168.559 48.378,168.310 48.861,167.780 49.317 C 167.475 49.578,166.462 50.519,165.528 51.407 C 164.594 52.294,162.898 53.878,161.759 54.925 C 159.364 57.127,158.641 57.801,156.343 59.975 C 155.420 60.848,153.779 62.371,152.697 63.359 C 151.615 64.347,150.257 65.612,149.681 66.171 C 149.104 66.730,148.120 67.652,147.493 68.219 C 146.422 69.189,141.842 73.441,140.638 74.583 C 140.336 74.870,139.482 75.667,138.740 76.354 C 137.998 77.042,136.042 78.870,134.393 80.417 C 132.744 81.964,131.289 83.323,131.161 83.438 C 130.262 84.239,126.015 88.176,125.316 88.854 C 124.845 89.313,123.339 90.719,121.969 91.979 C 120.600 93.240,118.823 94.892,118.021 95.652 C 117.219 96.411,116.211 97.360,115.781 97.760 C 115.352 98.160,115.000 98.557,115.000 98.644 C 115.000 98.731,115.727 98.099,116.615 97.240 C 117.503 96.382,118.835 95.128,119.575 94.454 C 120.930 93.220,122.629 91.639,125.718 88.736 C 126.641 87.869,128.099 86.514,128.958 85.724 C 129.818 84.935,131.083 83.753,131.771 83.097 C 132.458 82.442,133.218 81.735,133.460 81.526 C 133.701 81.317,135.061 80.058,136.481 78.728 C 137.901 77.399,139.308 76.086,139.608 75.812 C 139.908 75.537,141.302 74.234,142.706 72.917 C 144.162 71.550,145.489 70.476,145.795 70.417 C 146.089 70.359,169.459 70.359,197.728 70.417 L 249.126 70.521 249.927 71.234 C 251.076 72.255,252.930 73.968,255.208 76.115 C 256.297 77.140,257.752 78.504,258.443 79.146 C 262.209 82.646,262.923 83.313,264.115 84.438 C 264.831 85.114,265.417 85.584,265.417 85.484 C 265.417 85.383,265.206 85.122,264.948 84.904 C 264.690 84.686,263.120 83.240,261.458 81.692 C 254.694 75.387,252.761 73.588,251.473 72.396 C 250.730 71.708,249.380 70.443,248.473 69.583 C 245.975 67.218,245.805 67.059,244.571 65.938 C 243.599 65.054,241.724 63.306,236.979 58.862 C 236.521 58.432,235.677 57.657,235.104 57.139 C 234.531 56.621,232.844 55.053,231.354 53.654 C 227.412 49.952,225.885 48.532,225.370 48.085 C 225.119 47.867,223.644 46.493,222.092 45.031 C 220.540 43.570,218.757 41.911,218.130 41.344 C 217.502 40.776,216.743 40.078,216.443 39.792 C 214.746 38.170,208.539 32.383,206.953 30.942 C 206.824 30.825,205.980 30.026,205.078 29.166 C 204.176 28.307,202.361 26.619,201.046 25.416 C 199.731 24.213,198.465 23.031,198.234 22.789 C 198.002 22.547,197.600 22.283,197.341 22.201 C 197.081 22.120,196.923 21.966,196.988 21.860 C 197.222 21.481,196.947 21.677,196.287 22.357 M216.289 38.698 C 217.330 39.701,218.288 40.615,218.419 40.729 C 218.549 40.844,219.709 41.907,220.995 43.092 C 222.281 44.277,223.333 45.203,223.333 45.150 C 223.333 45.022,214.640 36.875,214.503 36.875 C 214.445 36.875,215.249 37.695,216.289 38.698 M225.313 47.105 C 228.628 50.243,232.500 53.790,232.500 53.689 C 232.500 53.557,224.145 45.754,223.750 45.518 C 223.578 45.415,224.281 46.129,225.313 47.105 M182.917 48.125 C 183.356 48.564,183.496 49.792,183.107 49.792 C 182.982 49.792,182.774 49.510,182.645 49.167 C 182.451 48.653,182.291 48.542,181.747 48.542 C 180.488 48.542,180.497 49.802,181.768 51.361 C 184.140 54.274,184.046 56.458,181.548 56.458 C 180.316 56.458,179.935 56.160,180.037 55.273 C 180.126 54.501,180.707 54.491,180.795 55.260 C 180.849 55.730,180.964 55.833,181.431 55.833 C 183.108 55.833,182.891 54.038,180.889 51.357 C 179.858 49.977,179.714 48.585,180.540 47.981 C 181.116 47.560,182.431 47.639,182.917 48.125 M198.033 50.019 C 198.093 50.116,197.904 50.256,197.613 50.329 C 196.996 50.484,196.998 50.470,197.077 54.140 C 197.123 56.247,197.081 56.701,196.848 56.623 C 196.631 56.551,196.538 55.812,196.458 53.525 L 196.354 50.521 195.729 50.513 C 195.323 50.508,195.104 50.399,195.104 50.201 C 195.104 49.701,197.735 49.538,198.033 50.019 M208.860 52.827 L 208.769 55.610 209.541 55.740 C 210.716 55.938,211.042 56.052,211.042 56.264 C 211.042 56.493,208.131 56.531,208.112 56.302 C 207.992 54.917,208.058 50.036,208.199 49.841 C 208.744 49.086,208.951 50.020,208.860 52.827 M187.450 50.417 C 188.221 51.874,187.519 53.438,186.093 53.438 C 184.991 53.438,184.850 53.660,184.812 55.469 C 184.797 56.200,184.710 56.458,184.479 56.458 C 184.192 56.458,184.067 56.021,184.122 55.208 C 184.134 55.036,184.160 53.867,184.180 52.608 C 184.226 49.722,184.131 49.883,185.780 49.890 C 187.053 49.895,187.199 49.941,187.450 50.417 M188.912 53.194 C 188.960 55.977,188.923 56.458,188.658 56.458 C 188.394 56.458,188.346 55.941,188.345 53.109 C 188.344 50.561,188.405 49.781,188.599 49.845 C 188.782 49.906,188.870 50.848,188.912 53.194 M192.566 50.217 C 192.881 50.667,192.818 52.396,192.470 52.837 C 192.357 52.981,192.407 53.170,192.602 53.331 C 193.030 53.686,193.057 56.458,192.633 56.458 C 192.433 56.458,192.316 56.055,192.240 55.102 C 192.115 53.542,191.856 53.125,191.016 53.125 L 190.417 53.125 190.417 54.688 C 190.417 55.884,190.349 56.250,190.126 56.250 C 189.661 56.250,189.583 55.756,189.583 52.808 L 189.583 50.025 190.365 49.943 C 192.065 49.766,192.267 49.791,192.566 50.217 M194.271 53.196 C 194.271 57.490,193.892 57.588,193.750 53.331 C 193.639 49.986,193.660 49.726,194.031 49.852 C 194.198 49.908,194.271 50.922,194.271 53.196 M199.626 50.052 C 199.650 50.195,199.673 51.484,199.678 52.917 L 199.688 55.521 200.555 55.584 C 201.651 55.664,201.719 55.485,201.762 52.396 C 201.788 50.565,201.854 50.104,202.091 50.104 C 202.730 50.104,202.815 54.946,202.194 55.938 C 201.788 56.587,199.768 56.643,199.148 56.023 C 198.475 55.350,198.689 49.792,199.387 49.792 C 199.495 49.792,199.603 49.909,199.626 50.052 M206.300 52.084 C 207.112 54.772,207.501 56.319,207.392 56.427 C 207.200 56.619,206.657 55.959,206.496 55.338 C 206.201 54.200,204.592 54.362,204.173 55.573 C 203.869 56.454,203.329 56.790,203.338 56.094 C 203.340 55.893,203.585 54.932,203.881 53.958 C 204.178 52.984,204.567 51.692,204.747 51.086 C 205.224 49.474,205.582 49.705,206.300 52.084 M185.000 51.420 C 185.000 53.554,186.683 53.559,186.741 51.426 L 186.771 50.313 185.885 50.248 L 185.000 50.184 185.000 51.420 M190.417 51.458 C 190.417 53.183,191.717 53.039,191.998 51.282 L 192.137 50.417 191.277 50.417 L 190.417 50.417 190.417 51.458 M205.033 52.889 C 204.706 53.979,204.697 53.958,205.508 53.958 L 206.225 53.958 205.905 53.021 C 205.514 51.874,205.345 51.848,205.033 52.889 M162.799 53.385 L 162.188 54.063 162.865 53.451 C 163.237 53.114,163.542 52.809,163.542 52.774 C 163.542 52.613,163.370 52.754,162.799 53.385 M233.125 54.218 C 233.125 54.271,233.340 54.539,233.603 54.813 C 234.406 55.653,238.750 59.628,238.750 59.524 C 238.750 59.470,237.484 58.233,235.938 56.775 C 234.391 55.316,233.125 54.166,233.125 54.218 M159.883 56.094 L 159.271 56.771 159.948 56.159 C 160.320 55.822,160.625 55.518,160.625 55.482 C 160.625 55.321,160.453 55.463,159.883 56.094 M239.521 60.333 C 239.842 60.630,241.323 62.020,242.813 63.422 C 245.993 66.415,247.292 67.584,247.292 67.455 C 247.292 67.318,239.207 59.792,239.060 59.792 C 238.992 59.792,239.200 60.035,239.521 60.333 M154.258 61.302 L 153.646 61.979 154.323 61.367 C 154.695 61.031,155.000 60.726,155.000 60.690 C 155.000 60.529,154.828 60.671,154.258 61.302 M248.148 68.385 C 248.199 68.414,248.988 69.141,249.902 70.000 L 251.563 71.563 250.005 69.948 C 249.149 69.060,248.360 68.333,248.252 68.333 C 248.144 68.333,248.097 68.357,248.148 68.385 M145.716 69.219 L 145.104 69.896 145.781 69.284 C 146.154 68.947,146.458 68.643,146.458 68.607 C 146.458 68.446,146.286 68.588,145.716 69.219 M251.688 71.719 C 251.739 71.747,252.293 72.240,252.921 72.813 L 254.063 73.854 253.029 72.760 C 252.460 72.159,251.905 71.667,251.796 71.667 C 251.687 71.667,251.638 71.690,251.688 71.719 M255.833 75.521 C 256.456 76.151,257.012 76.667,257.069 76.667 C 257.126 76.667,256.664 76.151,256.042 75.521 C 255.419 74.891,254.863 74.375,254.806 74.375 C 254.749 74.375,255.211 74.891,255.833 75.521 M137.591 76.719 L 136.979 77.396 137.656 76.784 C 138.029 76.447,138.333 76.143,138.333 76.107 C 138.333 75.946,138.161 76.088,137.591 76.719 M259.271 78.750 C 259.951 79.438,260.555 80.000,260.612 80.000 C 260.669 80.000,260.159 79.438,259.479 78.750 C 258.799 78.063,258.195 77.500,258.138 77.500 C 258.081 77.500,258.591 78.063,259.271 78.750 M260.855 80.260 C 260.905 80.289,261.460 80.781,262.088 81.354 L 263.229 82.396 262.195 81.302 C 261.627 80.701,261.072 80.208,260.963 80.208 C 260.853 80.208,260.805 80.232,260.855 80.260 M264.688 83.750 C 265.135 84.208,265.548 84.583,265.605 84.583 C 265.663 84.583,265.343 84.208,264.896 83.750 C 264.448 83.292,264.035 82.917,263.978 82.917 C 263.921 82.917,264.240 83.292,264.688 83.750 M129.049 84.635 L 128.438 85.313 129.115 84.701 C 129.487 84.364,129.792 84.059,129.792 84.024 C 129.792 83.863,129.620 84.004,129.049 84.635 M265.625 85.675 C 265.625 85.789,267.771 87.906,268.687 88.697 C 269.152 89.098,273.797 93.417,274.305 93.921 C 274.458 94.073,274.583 94.139,274.583 94.069 C 274.583 93.937,271.937 91.382,269.589 89.247 C 268.847 88.573,267.652 87.467,266.933 86.790 C 266.214 86.113,265.625 85.611,265.625 85.675 M267.106 86.094 C 267.156 86.122,267.805 86.708,268.547 87.396 L 269.896 88.646 268.652 87.344 C 267.968 86.628,267.320 86.042,267.211 86.042 C 267.103 86.042,267.055 86.065,267.106 86.094 M270.938 89.583 C 271.385 90.042,271.798 90.417,271.855 90.417 C 271.913 90.417,271.593 90.042,271.146 89.583 C 270.698 89.125,270.285 88.750,270.228 88.750 C 270.171 88.750,270.490 89.125,270.938 89.583 M123.424 89.844 L 122.813 90.521 123.490 89.909 C 123.862 89.572,124.167 89.268,124.167 89.232 C 124.167 89.071,123.995 89.213,123.424 89.844 M274.167 92.604 C 274.789 93.234,275.345 93.750,275.402 93.750 C 275.460 93.750,274.997 93.234,274.375 92.604 C 273.753 91.974,273.197 91.458,273.139 91.458 C 273.082 91.458,273.544 91.974,274.167 92.604 M120.508 92.552 L 119.896 93.229 120.573 92.617 C 120.945 92.281,121.250 91.976,121.250 91.940 C 121.250 91.779,121.078 91.921,120.508 92.552 M274.792 94.207 C 274.792 94.340,276.668 96.172,278.438 97.767 C 279.788 98.985,280.842 99.966,282.448 101.504 C 283.164 102.189,283.750 102.679,283.750 102.593 C 283.750 102.507,283.385 102.099,282.939 101.687 C 282.493 101.275,281.027 99.906,279.682 98.646 C 278.337 97.385,277.125 96.260,276.989 96.146 C 276.854 96.031,276.304 95.520,275.767 95.009 C 275.231 94.498,274.792 94.137,274.792 94.207 M117.799 95.052 L 117.188 95.729 117.865 95.117 C 118.237 94.781,118.542 94.476,118.542 94.440 C 118.542 94.279,118.370 94.421,117.799 95.052 M276.272 94.531 C 276.285 94.617,276.824 95.153,277.470 95.722 L 278.646 96.757 277.507 95.566 C 276.346 94.352,276.233 94.257,276.272 94.531 M114.883 97.760 L 114.271 98.438 114.948 97.826 C 115.320 97.489,115.625 97.184,115.625 97.149 C 115.625 96.988,115.453 97.129,114.883 97.760 M280.104 98.125 C 280.552 98.583,280.965 98.958,281.022 98.958 C 281.079 98.958,280.760 98.583,280.313 98.125 C 279.865 97.667,279.452 97.292,279.395 97.292 C 279.337 97.292,279.657 97.667,280.104 98.125 M113.958 99.413 C 113.175 100.113,112.046 101.167,107.179 105.741 C 105.465 107.352,103.501 109.180,102.815 109.804 C 102.129 110.427,100.442 112.023,99.065 113.349 C 97.689 114.675,95.910 116.362,95.112 117.099 C 94.314 117.835,93.413 118.672,93.111 118.958 C 90.516 121.415,86.809 124.871,86.055 125.537 C 85.547 125.987,84.740 126.729,84.261 127.188 C 81.465 129.863,79.672 131.542,78.031 133.021 C 77.013 133.938,75.794 135.063,75.321 135.521 C 73.876 136.922,71.463 139.177,69.189 141.253 C 67.998 142.340,66.635 143.604,66.161 144.063 C 65.686 144.521,64.687 145.458,63.942 146.146 C 62.441 147.529,57.792 151.870,56.245 153.333 C 55.699 153.849,54.470 154.987,53.512 155.862 C 50.895 158.252,50.625 158.512,50.625 158.636 C 50.625 158.699,116.648 158.747,197.344 158.744 L 344.063 158.738 343.333 158.083 C 342.932 157.723,341.245 156.147,339.583 154.580 C 337.922 153.014,335.208 150.475,333.552 148.939 C 331.897 147.403,330.151 145.771,329.672 145.313 C 329.194 144.854,327.971 143.729,326.955 142.813 C 325.325 141.343,324.228 140.313,320.740 136.979 C 320.261 136.521,319.453 135.778,318.945 135.329 C 318.437 134.880,316.802 133.366,315.313 131.965 C 312.152 128.991,311.746 128.613,309.144 126.222 C 308.068 125.233,306.710 123.967,306.127 123.410 C 305.544 122.852,304.560 121.932,303.940 121.365 C 301.299 118.949,297.540 115.423,296.266 114.167 C 295.511 113.422,293.731 111.734,292.310 110.417 C 290.890 109.099,289.338 107.646,288.862 107.188 C 286.751 105.154,283.960 102.673,284.082 102.938 C 284.155 103.098,284.884 103.832,285.701 104.570 C 287.710 106.381,291.994 110.368,294.050 112.339 L 295.729 113.948 197.191 113.953 L 98.653 113.958 99.691 112.984 C 100.262 112.448,101.292 111.487,101.979 110.848 C 112.290 101.273,114.958 98.757,114.792 98.760 C 114.734 98.761,114.359 99.055,113.958 99.413 M111.966 100.469 L 111.354 101.146 112.031 100.534 C 112.404 100.197,112.708 99.893,112.708 99.857 C 112.708 99.696,112.536 99.838,111.966 100.469 M283.542 101.354 C 284.280 102.099,284.931 102.708,284.988 102.708 C 285.045 102.708,284.488 102.099,283.750 101.354 C 283.012 100.609,282.361 100.000,282.304 100.000 C 282.246 100.000,282.803 100.609,283.542 101.354 M109.258 102.969 L 108.646 103.646 109.323 103.034 C 109.695 102.697,110.000 102.393,110.000 102.357 C 110.000 102.196,109.828 102.338,109.258 102.969 M285.439 103.073 C 285.451 103.159,285.991 103.695,286.637 104.264 L 287.813 105.299 286.674 104.108 C 285.513 102.893,285.400 102.799,285.439 103.073 M289.375 106.771 C 289.997 107.401,290.553 107.917,290.611 107.917 C 290.668 107.917,290.206 107.401,289.583 106.771 C 288.961 106.141,288.405 105.625,288.348 105.625 C 288.290 105.625,288.753 106.141,289.375 106.771 M103.530 108.281 L 102.813 109.063 103.594 108.345 C 104.321 107.676,104.471 107.500,104.312 107.500 C 104.277 107.500,103.925 107.852,103.530 108.281 M292.708 109.896 C 293.447 110.641,294.097 111.250,294.155 111.250 C 294.212 111.250,293.655 110.641,292.917 109.896 C 292.178 109.151,291.528 108.542,291.470 108.542 C 291.413 108.542,291.970 109.151,292.708 109.896 M100.716 110.885 L 100.104 111.563 100.781 110.951 C 101.412 110.380,101.554 110.208,101.393 110.208 C 101.357 110.208,101.053 110.513,100.716 110.885 M295.625 112.604 C 296.247 113.234,296.803 113.750,296.861 113.750 C 296.918 113.750,296.456 113.234,295.833 112.604 C 295.211 111.974,294.655 111.458,294.598 111.458 C 294.540 111.458,295.003 111.974,295.625 112.604 M297.917 114.688 C 298.305 115.089,298.670 115.417,298.728 115.417 C 298.785 115.417,298.514 115.089,298.125 114.688 C 297.736 114.286,297.371 113.958,297.314 113.958 C 297.257 113.958,297.528 114.286,297.917 114.688 M95.299 115.885 L 94.688 116.563 95.365 115.951 C 95.996 115.380,96.137 115.208,95.976 115.208 C 95.941 115.208,95.636 115.513,95.299 115.885 M301.042 117.604 C 301.664 118.234,302.220 118.750,302.277 118.750 C 302.335 118.750,301.872 118.234,301.250 117.604 C 300.628 116.974,300.072 116.458,300.014 116.458 C 299.957 116.458,300.419 116.974,301.042 117.604 M92.591 118.385 L 91.979 119.063 92.656 118.451 C 93.287 117.880,93.429 117.708,93.268 117.708 C 93.232 117.708,92.928 118.013,92.591 118.385 M303.854 120.208 C 304.302 120.667,304.715 121.042,304.772 121.042 C 304.829 121.042,304.510 120.667,304.063 120.208 C 303.615 119.750,303.202 119.375,303.145 119.375 C 303.087 119.375,303.407 119.750,303.854 120.208 M89.674 121.094 L 89.063 121.771 89.740 121.159 C 90.371 120.589,90.512 120.417,90.351 120.417 C 90.316 120.417,90.011 120.721,89.674 121.094 M306.866 122.969 C 307.377 123.513,307.822 123.958,307.856 123.958 C 308.012 123.958,307.847 123.771,306.927 122.908 L 305.938 121.979 306.866 122.969 M86.864 123.698 L 86.146 124.479 86.927 123.761 C 87.654 123.093,87.804 122.917,87.645 122.917 C 87.610 122.917,87.259 123.268,86.864 123.698 M309.991 125.885 C 310.855 126.805,311.042 126.971,311.042 126.814 C 311.042 126.781,310.596 126.335,310.052 125.825 L 309.063 124.896 309.991 125.885 M84.155 126.198 L 83.438 126.979 84.219 126.261 C 84.946 125.593,85.096 125.417,84.937 125.417 C 84.902 125.417,84.550 125.768,84.155 126.198 M313.021 128.750 C 313.468 129.208,313.881 129.583,313.939 129.583 C 313.996 129.583,313.677 129.208,313.229 128.750 C 312.782 128.292,312.369 127.917,312.311 127.917 C 312.254 127.917,312.573 128.292,313.021 128.750 M81.239 128.906 L 80.521 129.688 81.302 128.970 C 82.029 128.301,82.179 128.125,82.020 128.125 C 81.985 128.125,81.634 128.477,81.239 128.906 M183.003 130.751 C 183.459 130.926,183.203 131.250,182.609 131.250 C 181.568 131.250,181.458 131.411,181.458 132.939 L 181.458 134.375 182.175 134.375 C 182.956 134.375,183.349 134.730,182.891 135.020 C 182.733 135.120,182.357 135.203,182.056 135.205 C 181.537 135.208,181.499 135.279,181.367 136.515 C 181.175 138.304,181.297 138.542,182.406 138.542 C 183.229 138.542,183.753 138.816,183.470 139.099 C 183.104 139.465,180.684 139.413,180.534 139.036 C 180.364 138.608,180.372 131.074,180.543 130.797 C 180.666 130.598,182.515 130.564,183.003 130.751 M316.033 131.510 C 316.896 132.430,317.083 132.596,317.083 132.439 C 317.083 132.406,316.638 131.960,316.094 131.450 L 315.104 130.521 316.033 131.510 M78.322 131.615 L 77.604 132.396 78.385 131.678 C 79.113 131.010,79.262 130.833,79.103 130.833 C 79.069 130.833,78.717 131.185,78.322 131.615 M192.156 132.696 C 192.835 132.954,192.904 133.232,193.018 136.134 C 193.139 139.240,193.074 139.375,191.466 139.375 C 189.638 139.375,189.583 139.275,189.583 135.929 L 189.583 133.138 190.156 132.827 C 190.827 132.463,191.438 132.423,192.156 132.696 M196.490 132.725 C 197.000 132.998,196.794 133.333,196.116 133.333 L 195.589 133.333 195.659 136.406 C 195.719 139.030,195.683 139.479,195.417 139.479 C 195.156 139.479,195.095 138.985,195.046 136.510 C 194.995 133.873,194.948 133.539,194.630 133.518 C 194.432 133.504,194.130 133.481,193.958 133.466 C 193.385 133.414,193.626 132.820,194.264 132.710 C 195.436 132.509,196.094 132.513,196.490 132.725 M201.323 132.696 C 202.001 132.954,202.071 133.232,202.184 136.134 C 202.306 139.240,202.241 139.375,200.633 139.375 C 198.805 139.375,198.750 139.275,198.750 135.929 L 198.750 133.138 199.323 132.827 C 199.994 132.463,200.605 132.423,201.323 132.696 M212.677 132.774 C 212.826 132.955,212.875 133.980,212.817 135.759 L 212.730 138.469 213.798 138.662 C 215.396 138.949,215.300 139.323,213.605 139.418 C 212.825 139.462,212.117 139.464,212.031 139.424 C 211.838 139.333,211.822 132.831,212.014 132.639 C 212.223 132.429,212.424 132.470,212.677 132.774 M185.178 133.073 C 185.284 133.273,185.578 134.188,185.833 135.104 C 186.477 137.426,186.538 137.491,186.959 136.319 C 188.530 131.940,188.875 131.888,188.798 136.042 C 188.734 139.506,188.689 139.756,188.203 139.354 C 187.925 139.123,187.890 138.764,187.988 137.195 L 188.106 135.313 187.780 136.354 C 187.166 138.320,186.840 139.167,186.702 139.163 C 186.322 139.155,186.086 138.730,185.718 137.396 L 185.316 135.938 185.128 137.667 C 184.955 139.258,184.905 139.391,184.501 139.334 C 184.088 139.275,183.915 133.524,184.307 132.865 C 184.475 132.581,184.982 132.702,185.178 133.073 M198.043 136.045 C 198.067 139.471,198.033 139.731,197.611 139.381 C 197.174 139.018,197.253 132.670,197.694 132.756 C 197.973 132.810,198.024 133.294,198.043 136.045 M204.510 134.792 C 205.673 137.299,205.824 137.351,205.864 135.260 C 205.911 132.827,205.911 132.825,206.302 132.749 C 206.675 132.676,206.881 137.949,206.540 138.837 C 206.185 139.763,205.391 138.832,204.456 136.394 C 203.791 134.658,203.805 134.643,203.638 137.193 C 203.487 139.497,203.492 139.480,203.007 139.294 C 202.416 139.067,202.857 132.708,203.464 132.708 C 203.507 132.708,203.978 133.646,204.510 134.792 M209.539 132.969 C 209.658 133.112,209.901 133.792,210.080 134.479 C 210.260 135.167,210.584 136.245,210.801 136.875 C 211.337 138.429,211.499 139.375,211.230 139.375 C 210.909 139.375,210.417 138.827,210.417 138.469 C 210.417 137.732,210.160 137.500,209.342 137.500 C 208.486 137.500,208.438 137.556,207.841 139.242 C 207.593 139.941,207.103 139.274,207.282 138.483 C 207.588 137.134,209.045 132.708,209.182 132.708 C 209.260 132.708,209.421 132.826,209.539 132.969 M75.614 134.115 L 74.896 134.896 75.677 134.178 C 76.404 133.510,76.554 133.333,76.395 133.333 C 76.360 133.333,76.009 133.685,75.614 134.115 M190.667 133.583 C 190.499 133.751,190.417 134.680,190.417 136.392 L 190.417 138.952 191.302 138.893 L 192.188 138.834 192.253 137.178 C 192.389 133.756,191.809 132.441,190.667 133.583 M199.833 133.583 C 199.666 133.751,199.583 134.680,199.583 136.392 L 199.583 138.952 200.469 138.893 L 201.354 138.834 201.420 137.178 C 201.555 133.756,200.975 132.441,199.833 133.583 M319.158 134.427 C 320.021 135.347,320.208 135.512,320.208 135.356 C 320.208 135.322,319.763 134.877,319.219 134.366 L 318.229 133.438 319.158 134.427 M208.991 135.805 C 208.667 136.887,208.663 136.875,209.375 136.875 C 210.092 136.875,210.116 136.787,209.685 135.755 C 209.294 134.820,209.286 134.820,208.991 135.805 M72.697 136.823 L 71.979 137.604 72.760 136.886 C 73.488 136.218,73.637 136.042,73.478 136.042 C 73.444 136.042,73.092 136.393,72.697 136.823 M322.188 137.292 C 322.635 137.750,323.048 138.125,323.105 138.125 C 323.163 138.125,322.843 137.750,322.396 137.292 C 321.948 136.833,321.535 136.458,321.478 136.458 C 321.421 136.458,321.740 136.833,322.188 137.292 M69.886 139.427 L 69.063 140.313 69.948 139.489 C 70.435 139.036,70.833 138.638,70.833 138.604 C 70.833 138.446,70.652 138.604,69.886 139.427 M325.200 140.052 C 326.063 140.972,326.250 141.137,326.250 140.981 C 326.250 140.947,325.805 140.502,325.260 139.991 L 324.271 139.063 325.200 140.052 M67.072 142.031 L 66.354 142.813 67.135 142.095 C 67.863 141.426,68.012 141.250,67.853 141.250 C 67.819 141.250,67.467 141.602,67.072 142.031 M328.325 142.969 C 329.188 143.889,329.375 144.054,329.375 143.898 C 329.375 143.864,328.930 143.419,328.385 142.908 L 327.396 141.979 328.325 142.969 M64.167 144.688 C 63.661 145.203,63.293 145.625,63.351 145.625 C 63.408 145.625,63.869 145.203,64.375 144.688 C 64.881 144.172,65.248 143.750,65.191 143.750 C 65.134 143.750,64.673 144.172,64.167 144.688 M331.354 145.833 C 331.802 146.292,332.215 146.667,332.272 146.667 C 332.329 146.667,332.010 146.292,331.563 145.833 C 331.115 145.375,330.702 145.000,330.645 145.000 C 330.587 145.000,330.907 145.375,331.354 145.833 M61.458 147.188 C 60.952 147.703,60.585 148.125,60.642 148.125 C 60.700 148.125,61.161 147.703,61.667 147.188 C 62.173 146.672,62.540 146.250,62.483 146.250 C 62.425 146.250,61.964 146.672,61.458 147.188 M334.366 148.594 C 335.230 149.514,335.417 149.679,335.417 149.523 C 335.417 149.489,334.971 149.044,334.427 148.533 L 333.438 147.604 334.366 148.594 M58.542 149.896 C 58.036 150.411,57.668 150.833,57.726 150.833 C 57.783 150.833,58.244 150.411,58.750 149.896 C 59.256 149.380,59.623 148.958,59.566 148.958 C 59.509 148.958,59.048 149.380,58.542 149.896 M337.491 151.510 C 338.355 152.430,338.542 152.596,338.542 152.439 C 338.542 152.406,338.096 151.960,337.552 151.450 L 336.563 150.521 337.491 151.510 M55.721 152.552 L 54.688 153.646 55.781 152.612 C 56.383 152.043,56.875 151.551,56.875 151.518 C 56.875 151.363,56.682 151.536,55.721 152.552 M340.521 154.375 C 340.968 154.833,341.381 155.208,341.439 155.208 C 341.496 155.208,341.177 154.833,340.729 154.375 C 340.282 153.917,339.869 153.542,339.811 153.542 C 339.754 153.542,340.073 153.917,340.521 154.375 M52.917 155.104 C 52.411 155.620,52.043 156.042,52.101 156.042 C 52.158 156.042,52.619 155.620,53.125 155.104 C 53.631 154.589,53.998 154.167,53.941 154.167 C 53.884 154.167,53.423 154.589,52.917 155.104 M343.533 157.135 C 344.396 158.055,344.583 158.221,344.583 158.064 C 344.583 158.031,344.138 157.585,343.594 157.075 L 342.604 156.146 343.533 157.135 M50.096 157.760 L 49.063 158.854 50.156 157.820 C 50.758 157.252,51.250 156.760,51.250 156.727 C 51.250 156.571,51.057 156.744,50.096 157.760 " stroke="none" fill="#3d9a57" fill-rule="evenodd"></path><path id="path1" d="M126.966 87.552 L 126.354 88.229 127.031 87.617 C 127.404 87.281,127.708 86.976,127.708 86.940 C 127.708 86.779,127.536 86.921,126.966 87.552 M186.608 92.240 C 186.562 92.326,186.594 92.630,186.679 92.917 C 186.823 93.403,186.835 93.393,186.854 92.760 C 186.874 92.107,186.782 91.913,186.608 92.240 M198.382 94.375 C 198.382 94.776,198.425 94.940,198.477 94.740 C 198.529 94.539,198.529 94.211,198.477 94.010 C 198.425 93.810,198.382 93.974,198.382 94.375 M49.792 159.306 C 49.505 159.608,48.052 160.985,46.563 162.365 C 45.073 163.746,42.542 166.106,40.938 167.610 C 39.333 169.114,37.411 170.896,36.667 171.570 C 35.922 172.244,35.209 172.893,35.083 173.012 C 34.957 173.132,33.550 174.448,31.958 175.937 C 30.365 177.426,28.359 179.305,27.500 180.113 C 26.641 180.920,25.288 182.186,24.494 182.926 C 23.700 183.666,22.809 184.506,22.515 184.794 C 22.220 185.081,20.901 186.296,19.583 187.492 C 18.266 188.689,16.344 190.479,15.313 191.470 C 14.281 192.462,12.828 193.820,12.083 194.489 C 9.711 196.619,5.943 200.229,5.771 200.536 C 5.627 200.793,31.381 200.833,197.177 200.833 C 302.915 200.833,388.750 200.754,388.750 200.655 C 388.750 200.439,388.156 199.811,386.650 198.438 C 385.693 197.565,381.121 193.302,379.164 191.458 C 378.860 191.172,378.101 190.469,377.477 189.896 C 376.852 189.323,375.041 187.635,373.451 186.146 C 371.860 184.656,370.456 183.344,370.330 183.229 C 369.067 182.082,364.317 177.662,362.920 176.334 C 361.944 175.406,360.536 174.100,359.792 173.431 C 359.047 172.762,357.781 171.591,356.979 170.829 C 355.238 169.174,352.972 167.061,350.833 165.100 C 349.974 164.312,348.568 162.994,347.708 162.171 C 346.849 161.347,345.677 160.244,345.104 159.718 L 344.063 158.762 197.188 158.759 L 50.313 158.757 49.792 159.306 M47.180 160.469 L 46.146 161.563 47.240 160.529 C 47.841 159.960,48.333 159.468,48.333 159.435 C 48.333 159.279,48.140 159.452,47.180 160.469 M44.572 162.865 L 43.854 163.646 44.635 162.928 C 45.363 162.260,45.512 162.083,45.353 162.083 C 45.319 162.083,44.967 162.435,44.572 162.865 M41.761 165.469 L 40.938 166.354 41.823 165.531 C 42.646 164.765,42.804 164.583,42.646 164.583 C 42.612 164.583,42.214 164.982,41.761 165.469 M352.083 165.065 C 352.083 165.101,352.388 165.406,352.760 165.742 L 353.438 166.354 352.826 165.677 C 352.255 165.046,352.083 164.904,352.083 165.065 M38.535 168.490 L 37.396 169.688 38.594 168.549 C 39.253 167.922,39.792 167.383,39.792 167.351 C 39.792 167.196,39.592 167.377,38.535 168.490 M35.833 170.938 C 35.327 171.453,34.960 171.875,35.017 171.875 C 35.075 171.875,35.536 171.453,36.042 170.938 C 36.548 170.422,36.915 170.000,36.858 170.000 C 36.800 170.000,36.339 170.422,35.833 170.938 M32.910 173.698 L 31.771 174.896 32.969 173.757 C 33.628 173.131,34.167 172.592,34.167 172.559 C 34.167 172.405,33.967 172.585,32.910 173.698 M28.646 177.636 L 26.146 180.047 28.571 177.888 C 30.558 176.119,31.499 175.160,31.191 175.217 C 31.166 175.221,30.021 176.310,28.646 177.636 M185.677 175.781 C 185.964 176.037,186.041 176.442,186.038 177.689 C 186.034 179.673,185.916 179.855,184.543 179.993 L 183.438 180.104 183.378 182.149 C 183.325 183.951,183.275 184.186,182.961 184.124 C 182.596 184.051,182.445 176.403,182.791 175.501 C 182.957 175.068,185.113 175.277,185.677 175.781 M183.493 177.552 C 183.380 179.324,183.418 179.394,184.375 179.197 L 185.104 179.047 185.165 177.544 L 185.227 176.042 184.408 176.042 L 183.589 176.042 183.493 177.552 M193.980 179.871 C 193.243 181.594,193.155 181.967,193.266 182.897 C 193.368 183.762,193.333 183.958,193.075 183.958 C 192.569 183.958,192.382 183.522,192.317 182.188 C 192.255 180.925,191.892 179.441,191.330 178.151 C 190.623 176.528,191.541 177.170,192.301 178.830 L 192.884 180.104 193.405 178.938 C 193.691 178.296,194.097 177.599,194.306 177.388 C 195.023 176.669,194.878 177.768,193.980 179.871 M204.115 177.551 C 204.485 177.847,204.458 178.769,204.083 178.625 C 203.922 178.563,203.742 178.326,203.683 178.098 C 203.588 177.738,202.343 177.679,201.926 178.015 C 201.897 178.038,201.850 179.221,201.822 180.643 L 201.771 183.229 202.656 183.293 C 203.490 183.354,203.542 183.325,203.542 182.809 C 203.542 182.399,203.634 182.279,203.906 182.331 C 204.170 182.382,204.271 182.602,204.271 183.128 L 204.271 183.854 202.836 183.908 C 200.806 183.984,200.770 183.933,200.932 181.262 C 201.093 178.612,201.214 177.660,201.413 177.467 C 201.808 177.083,203.599 177.139,204.115 177.551 M210.646 178.512 C 210.657 179.158,210.649 180.461,210.628 181.406 C 210.607 182.352,210.668 183.131,210.764 183.139 C 212.109 183.248,212.970 183.558,212.694 183.834 C 212.566 183.962,210.024 184.052,209.904 183.932 C 209.755 183.783,209.736 177.550,209.884 177.310 C 210.229 176.753,210.626 177.380,210.646 178.512 M187.500 178.866 L 187.500 180.208 188.333 180.240 C 188.792 180.257,189.284 180.280,189.427 180.292 C 189.604 180.306,189.721 179.843,189.792 178.854 C 189.871 177.743,189.970 177.396,190.208 177.396 C 190.514 177.396,190.563 183.312,190.261 183.824 C 190.035 184.209,189.798 183.377,189.795 182.188 L 189.792 180.938 188.646 180.938 C 187.644 180.938,187.498 180.990,187.486 181.354 C 187.478 181.583,187.454 182.286,187.433 182.917 C 187.405 183.780,187.319 184.063,187.083 184.063 C 186.781 184.063,186.695 178.369,186.985 177.539 C 187.212 176.889,187.500 177.631,187.500 178.866 M198.554 177.721 C 199.015 178.181,199.027 178.762,198.580 178.911 C 198.429 178.961,198.254 178.805,198.191 178.564 C 198.079 178.136,196.750 177.903,196.402 178.251 C 196.136 178.517,196.711 179.442,197.723 180.378 C 199.632 182.141,199.356 183.828,197.141 183.929 C 196.018 183.980,195.417 183.539,195.417 182.662 C 195.417 182.116,196.022 182.212,196.242 182.792 C 196.397 183.198,196.573 183.289,197.175 183.272 C 198.323 183.239,198.244 182.230,197.004 181.087 C 195.338 179.551,194.991 178.551,195.833 177.708 C 196.416 177.126,197.966 177.133,198.554 177.721 M200.208 179.268 C 200.337 181.536,200.175 183.967,199.896 183.963 C 199.700 183.961,199.383 177.984,199.552 177.486 C 199.795 176.769,200.116 177.641,200.208 179.268 M207.809 178.901 C 207.888 179.429,208.165 180.342,208.426 180.930 C 208.971 182.164,209.301 183.958,208.983 183.958 C 208.656 183.958,208.125 183.084,208.125 182.546 C 208.125 181.537,206.248 181.978,205.884 183.073 C 205.605 183.914,205.000 184.308,205.000 183.649 C 205.000 183.257,205.889 180.239,206.429 178.802 C 206.654 178.201,206.795 177.708,206.741 177.708 C 206.686 177.708,206.704 177.608,206.779 177.486 C 207.039 177.066,207.662 177.922,207.809 178.901 M207.014 179.740 C 206.962 179.826,206.823 180.247,206.706 180.677 L 206.492 181.458 207.192 181.458 L 207.891 181.458 207.572 180.521 C 207.245 179.561,207.178 179.467,207.014 179.740 M24.368 181.607 L 23.229 182.796 24.298 181.867 C 25.193 181.089,25.777 180.417,25.559 180.417 C 25.530 180.417,24.994 180.952,24.368 181.607 M13.958 191.196 C 8.974 195.829,4.380 200.080,3.750 200.641 C 2.642 201.627,2.623 201.661,3.189 201.664 C 3.565 201.666,3.724 201.584,3.632 201.436 C 3.553 201.308,3.731 200.996,4.027 200.742 C 4.323 200.488,5.858 199.063,7.439 197.576 C 9.019 196.088,10.821 194.408,11.442 193.842 C 12.951 192.467,13.403 192.044,15.335 190.203 C 16.239 189.341,18.049 187.653,19.356 186.453 C 22.960 183.144,23.196 182.917,23.105 182.841 C 23.059 182.803,18.943 186.562,13.958 191.196 M385.833 196.524 C 385.833 196.559,386.138 196.864,386.510 197.201 L 387.188 197.813 386.576 197.135 C 386.005 196.504,385.833 196.363,385.833 196.524 " stroke="none" fill="#e23c44" fill-rule="evenodd"></path><path id="path2" d="M144.139 71.615 C 142.687 72.952,142.424 73.197,140.073 75.417 C 138.117 77.263,136.436 78.831,132.928 82.083 C 131.507 83.401,129.540 85.235,128.557 86.160 C 127.575 87.084,126.259 88.303,125.634 88.868 C 125.009 89.433,124.304 90.083,124.068 90.313 C 123.174 91.179,120.226 93.934,117.938 96.042 C 116.632 97.245,115.315 98.464,115.012 98.750 C 113.835 99.863,111.228 102.299,108.547 104.792 C 107.007 106.224,105.086 108.011,104.280 108.763 C 103.473 109.515,102.304 110.593,101.683 111.159 C 101.062 111.725,100.139 112.586,99.633 113.073 L 98.712 113.958 197.220 113.954 L 295.729 113.950 294.581 112.860 C 292.783 111.153,287.526 106.242,286.156 104.988 C 285.003 103.935,283.192 102.236,280.768 99.934 C 280.216 99.411,279.372 98.633,278.893 98.206 C 278.413 97.779,276.761 96.250,275.222 94.808 C 271.994 91.786,272.487 92.245,269.163 89.167 C 267.740 87.849,266.385 86.583,266.153 86.354 C 265.817 86.024,261.095 81.645,260.087 80.729 C 259.961 80.615,258.555 79.302,256.963 77.813 C 255.370 76.323,253.457 74.538,252.711 73.845 C 251.965 73.153,250.839 72.099,250.208 71.504 L 249.063 70.422 197.251 70.419 L 145.440 70.417 144.139 71.615 M184.512 88.856 C 184.766 89.772,185.093 91.117,185.238 91.846 L 185.502 93.171 185.774 91.534 C 186.253 88.648,186.971 86.861,187.517 87.198 C 187.810 87.379,187.764 95.566,187.468 95.749 C 187.077 95.990,186.639 95.167,186.682 94.271 C 186.785 92.135,186.474 92.101,186.163 94.214 C 185.882 96.122,185.212 95.698,184.606 93.229 L 184.197 91.563 184.182 93.698 C 184.169 95.466,184.112 95.833,183.849 95.833 C 183.246 95.833,183.166 94.758,183.302 88.474 C 183.347 86.413,183.879 86.581,184.512 88.856 M195.653 92.347 C 195.575 96.431,195.175 96.729,193.864 93.681 C 192.656 90.873,192.736 90.894,192.722 93.373 C 192.708 95.611,192.522 96.180,191.993 95.598 C 191.800 95.385,191.768 94.600,191.865 92.500 C 192.053 88.419,192.203 88.335,193.693 91.472 C 194.819 93.843,194.960 93.795,194.978 91.031 C 194.986 89.886,195.077 89.248,195.249 89.141 C 195.688 88.870,195.715 89.085,195.653 92.347 M199.297 89.188 C 199.683 89.509,199.459 89.792,198.821 89.792 L 198.291 89.792 198.364 92.865 C 198.427 95.490,198.392 95.938,198.125 95.938 C 197.865 95.938,197.803 95.445,197.755 92.982 L 197.697 90.026 197.026 89.961 C 196.157 89.877,196.119 89.315,196.972 89.169 C 198.225 88.953,199.022 88.960,199.297 89.188 M205.531 89.183 C 205.607 89.306,205.662 90.665,205.652 92.204 L 205.635 95.000 206.203 95.009 C 206.980 95.022,208.125 95.538,207.708 95.687 C 207.204 95.869,204.794 96.015,204.772 95.866 C 204.645 94.991,204.720 89.414,204.862 89.219 C 205.094 88.899,205.347 88.885,205.531 89.183 M191.132 89.353 C 191.287 89.603,190.749 89.792,189.879 89.792 L 189.167 89.792 189.167 90.833 L 189.167 91.875 190.000 91.875 C 190.602 91.875,190.833 91.962,190.833 92.188 C 190.833 92.413,190.602 92.500,190.000 92.500 L 189.167 92.500 189.167 93.739 L 189.167 94.977 190.140 95.041 C 190.675 95.076,191.150 95.215,191.194 95.350 C 191.293 95.651,189.610 95.937,188.857 95.748 L 188.333 95.617 188.336 92.861 C 188.340 89.096,188.312 89.167,189.804 89.167 C 190.471 89.167,191.069 89.251,191.132 89.353 M202.617 89.971 C 202.679 90.273,202.964 91.224,203.250 92.083 C 203.907 94.060,204.261 95.600,204.096 95.765 C 203.872 95.989,203.337 95.386,203.164 94.713 C 202.816 93.361,200.833 93.857,200.833 95.297 C 200.833 95.449,200.694 95.690,200.523 95.831 C 199.663 96.545,200.142 94.085,201.769 89.431 C 201.917 89.010,202.495 89.378,202.617 89.971 M201.909 91.988 C 201.479 92.932,201.592 93.333,202.290 93.333 L 202.913 93.333 202.569 92.448 C 202.379 91.961,202.208 91.539,202.187 91.510 C 202.167 91.480,202.042 91.696,201.909 91.988 " stroke="none" fill="#fbdb3c" fill-rule="evenodd"></path><path id="path3" d="M0.000 112.500 L 0.000 225.000 200.000 225.000 L 400.000 225.000 400.000 112.500 L 400.000 0.000 200.000 0.000 L 0.000 0.000 0.000 112.500 M223.133 44.844 C 237.060 57.821,280.602 98.391,319.893 135.000 L 391.332 201.563 390.510 201.667 C 390.058 201.724,302.622 201.724,196.208 201.667 L 2.729 201.563 4.660 199.792 C 5.721 198.818,8.460 196.286,10.746 194.167 C 13.033 192.047,20.573 185.065,27.504 178.650 C 34.434 172.236,49.526 158.266,61.042 147.606 C 72.557 136.945,93.370 117.682,107.292 104.799 C 121.214 91.915,134.385 79.720,136.563 77.699 C 141.539 73.077,162.146 54.004,180.106 37.396 C 187.665 30.406,194.672 23.914,195.677 22.969 C 196.683 22.023,197.575 21.250,197.659 21.250 C 197.743 21.251,209.207 31.868,223.133 44.844 " stroke="none" fill="#fbfbfb" fill-rule="evenodd"></path><path id="path4" d="M196.560 22.250 C 195.986 22.789,194.346 24.307,192.915 25.625 C 191.483 26.943,189.659 28.630,188.859 29.375 C 187.227 30.896,186.094 31.946,182.188 35.557 C 180.698 36.934,178.026 39.405,176.250 41.047 C 174.474 42.690,170.631 46.243,167.711 48.944 C 161.467 54.718,158.457 57.505,151.140 64.283 C 148.164 67.040,143.760 71.113,141.354 73.336 C 138.948 75.559,136.464 77.861,135.833 78.452 C 135.203 79.043,128.781 84.991,121.563 91.669 C 114.344 98.347,107.875 104.341,107.188 104.988 C 106.500 105.635,103.453 108.460,100.417 111.265 C 97.380 114.069,87.867 122.878,79.277 130.838 C 62.913 146.004,46.950 160.788,44.997 162.587 C 44.365 163.169,42.490 164.921,40.831 166.479 C 39.171 168.038,37.203 169.866,36.458 170.541 C 35.216 171.668,32.389 174.308,31.347 175.313 C 31.110 175.542,30.356 176.245,29.673 176.875 C 26.528 179.778,23.407 182.678,22.611 183.438 C 22.131 183.896,20.667 185.253,19.359 186.453 C 18.050 187.653,16.239 189.341,15.335 190.203 C 13.403 192.044,12.951 192.467,11.442 193.842 C 10.821 194.408,9.019 196.088,7.439 197.576 C 5.858 199.063,4.323 200.488,4.027 200.742 C 3.731 200.996,3.553 201.308,3.632 201.436 C 3.798 201.704,390.740 201.777,390.906 201.509 C 390.979 201.392,376.584 187.814,368.996 180.841 C 368.188 180.099,362.424 174.732,360.833 173.240 C 360.089 172.542,358.026 170.618,356.250 168.966 C 354.474 167.313,351.755 164.780,350.208 163.335 C 348.661 161.891,346.693 160.065,345.833 159.278 C 344.974 158.490,343.708 157.320,343.021 156.677 C 342.333 156.034,340.974 154.768,340.000 153.862 C 339.026 152.957,337.620 151.645,336.875 150.947 C 336.130 150.249,334.068 148.328,332.292 146.677 C 330.516 145.027,328.453 143.105,327.708 142.407 C 326.964 141.708,324.901 139.786,323.125 138.136 C 321.349 136.485,319.286 134.563,318.542 133.865 C 317.797 133.167,315.734 131.243,313.958 129.591 C 312.182 127.938,309.417 125.362,307.813 123.866 C 306.208 122.370,304.286 120.585,303.542 119.900 C 302.797 119.214,301.390 117.901,300.415 116.983 C 299.440 116.064,297.565 114.338,296.248 113.148 C 294.932 111.957,293.198 110.360,292.396 109.598 C 290.781 108.066,288.356 105.807,286.139 103.771 C 285.341 103.039,283.890 101.679,282.916 100.751 C 281.941 99.822,280.533 98.500,279.787 97.813 C 278.065 96.227,273.234 91.728,272.515 91.042 C 272.215 90.755,270.899 89.536,269.590 88.333 C 268.281 87.130,266.821 85.771,266.345 85.313 C 265.869 84.854,264.508 83.589,263.320 82.500 C 262.132 81.411,260.407 79.811,259.486 78.944 C 255.442 75.135,254.194 73.970,253.021 72.905 C 252.334 72.281,251.031 71.068,250.126 70.208 C 247.828 68.025,247.492 67.712,246.445 66.787 C 245.638 66.074,240.920 61.670,239.397 60.208 C 239.098 59.922,237.782 58.703,236.472 57.500 C 235.161 56.297,233.755 54.983,233.347 54.580 C 232.938 54.177,231.385 52.729,229.896 51.362 C 228.406 49.996,225.828 47.601,224.167 46.041 C 221.475 43.514,219.105 41.324,218.418 40.729 C 218.286 40.615,217.297 39.677,216.220 38.646 C 215.143 37.615,213.749 36.307,213.121 35.740 C 212.493 35.173,210.677 33.485,209.085 31.990 C 207.493 30.494,206.086 29.177,205.958 29.063 C 205.483 28.637,200.312 23.839,199.896 23.438 C 199.658 23.208,199.045 22.627,198.534 22.146 L 197.604 21.271 196.560 22.250 M198.234 22.789 C 198.465 23.031,199.731 24.213,201.046 25.416 C 202.361 26.619,204.176 28.307,205.078 29.166 C 205.980 30.026,206.824 30.825,206.953 30.942 C 208.539 32.383,214.746 38.170,216.443 39.792 C 216.743 40.078,217.502 40.776,218.130 41.344 C 218.757 41.911,220.540 43.570,222.092 45.031 C 223.644 46.493,225.119 47.867,225.370 48.085 C 225.885 48.532,227.412 49.952,231.354 53.654 C 232.844 55.053,234.531 56.621,235.104 57.139 C 235.677 57.657,236.521 58.432,236.979 58.862 C 241.724 63.306,243.599 65.054,244.571 65.938 C 245.202 66.510,245.963 67.214,246.264 67.500 C 247.420 68.602,252.646 73.487,253.730 74.479 C 254.356 75.052,255.207 75.849,255.621 76.250 C 256.036 76.651,257.589 78.098,259.073 79.466 C 260.557 80.834,263.130 83.233,264.792 84.797 C 266.453 86.362,268.230 88.009,268.740 88.457 C 269.251 88.904,270.516 90.079,271.553 91.067 C 274.033 93.430,274.767 94.116,276.851 96.013 C 277.812 96.888,279.043 98.026,279.586 98.542 C 280.901 99.789,285.426 104.007,286.850 105.313 C 287.475 105.885,288.378 106.729,288.857 107.188 C 289.336 107.646,290.890 109.099,292.310 110.417 C 293.731 111.734,295.511 113.422,296.266 114.167 C 297.540 115.423,301.299 118.949,303.940 121.365 C 304.560 121.932,305.544 122.852,306.127 123.410 C 306.710 123.967,308.068 125.233,309.144 126.222 C 311.746 128.613,312.152 128.991,315.313 131.965 C 316.802 133.366,318.437 134.880,318.945 135.329 C 319.453 135.778,320.261 136.521,320.740 136.979 C 324.228 140.313,325.325 141.343,326.955 142.813 C 327.971 143.729,329.194 144.854,329.672 145.313 C 330.151 145.771,331.897 147.403,333.552 148.939 C 335.208 150.475,337.969 153.054,339.687 154.668 C 343.097 157.872,345.368 159.987,345.747 160.313 C 345.881 160.427,346.728 161.229,347.631 162.094 C 348.533 162.960,349.974 164.312,350.833 165.100 C 352.972 167.061,355.238 169.174,356.979 170.829 C 357.781 171.591,359.047 172.762,359.792 173.431 C 360.536 174.100,361.944 175.406,362.920 176.334 C 364.317 177.662,369.067 182.082,370.330 183.229 C 370.456 183.344,371.860 184.656,373.451 186.146 C 375.041 187.635,376.852 189.323,377.477 189.896 C 378.101 190.469,378.860 191.172,379.164 191.458 C 381.121 193.302,385.693 197.565,386.650 198.438 C 388.156 199.811,388.750 200.439,388.750 200.655 C 388.750 200.754,302.915 200.833,197.177 200.833 C 31.381 200.833,5.627 200.793,5.771 200.536 C 5.943 200.229,9.711 196.619,12.083 194.489 C 12.828 193.820,14.281 192.462,15.313 191.470 C 16.344 190.479,18.266 188.689,19.583 187.492 C 20.901 186.296,22.220 185.081,22.515 184.794 C 22.809 184.506,23.700 183.666,24.494 182.926 C 25.288 182.186,26.641 180.920,27.500 180.113 C 28.359 179.305,30.365 177.426,31.958 175.937 C 33.550 174.448,34.957 173.132,35.083 173.012 C 35.209 172.893,35.922 172.244,36.667 171.570 C 37.411 170.896,39.333 169.114,40.938 167.610 C 42.542 166.106,45.073 163.742,46.563 162.356 C 48.052 160.971,49.833 159.300,50.521 158.644 C 51.208 157.987,52.554 156.735,53.512 155.860 C 54.470 154.986,55.699 153.849,56.245 153.333 C 57.792 151.870,62.441 147.529,63.942 146.146 C 64.687 145.458,65.686 144.521,66.161 144.063 C 66.635 143.604,67.998 142.340,69.189 141.253 C 71.463 139.177,73.876 136.922,75.321 135.521 C 75.794 135.063,77.013 133.938,78.031 133.021 C 79.672 131.542,81.465 129.863,84.261 127.188 C 84.740 126.729,85.547 125.987,86.055 125.537 C 86.809 124.871,90.516 121.415,93.111 118.958 C 93.413 118.672,94.314 117.835,95.112 117.099 C 95.910 116.362,97.689 114.675,99.065 113.349 C 100.442 112.023,102.129 110.427,102.815 109.804 C 103.501 109.180,105.465 107.352,107.179 105.741 C 112.773 100.484,113.219 100.069,114.054 99.353 C 114.508 98.964,115.219 98.318,115.634 97.917 C 117.053 96.545,119.479 94.272,121.969 91.979 C 123.339 90.719,124.845 89.313,125.316 88.854 C 126.015 88.176,130.262 84.239,131.161 83.438 C 131.289 83.323,132.744 81.964,134.393 80.417 C 136.042 78.870,137.998 77.042,138.740 76.354 C 139.482 75.667,140.336 74.870,140.638 74.583 C 141.842 73.441,146.422 69.189,147.493 68.219 C 148.120 67.652,149.104 66.730,149.681 66.171 C 150.257 65.612,151.615 64.347,152.697 63.359 C 153.779 62.371,155.420 60.848,156.343 59.975 C 158.585 57.855,159.319 57.169,161.754 54.925 C 163.973 52.880,164.041 52.817,167.813 49.272 C 169.188 47.979,170.772 46.513,171.335 46.013 C 171.897 45.513,172.745 44.729,173.220 44.271 C 173.695 43.813,175.438 42.178,177.094 40.639 C 178.750 39.100,181.417 36.610,183.021 35.105 C 184.625 33.600,186.547 31.818,187.292 31.146 C 188.036 30.474,189.302 29.300,190.104 28.537 C 190.906 27.775,192.266 26.498,193.125 25.700 C 193.984 24.902,195.203 23.765,195.833 23.173 C 197.069 22.012,197.433 21.953,198.234 22.789 M180.540 47.981 C 179.714 48.585,179.858 49.977,180.889 51.357 C 182.891 54.038,183.108 55.833,181.431 55.833 C 180.964 55.833,180.849 55.730,180.795 55.260 C 180.707 54.491,180.126 54.501,180.037 55.273 C 179.935 56.160,180.316 56.458,181.548 56.458 C 184.046 56.458,184.140 54.274,181.768 51.361 C 180.497 49.802,180.488 48.542,181.747 48.542 C 182.291 48.542,182.451 48.653,182.645 49.167 C 182.774 49.510,182.982 49.792,183.107 49.792 C 183.496 49.792,183.356 48.564,182.917 48.125 C 182.431 47.639,181.116 47.560,180.540 47.981 M196.146 49.789 C 194.957 49.911,194.618 50.500,195.729 50.513 L 196.354 50.521 196.458 53.525 C 196.538 55.812,196.631 56.551,196.848 56.623 C 197.081 56.701,197.123 56.247,197.077 54.140 C 196.998 50.470,196.996 50.484,197.613 50.329 C 198.809 50.029,197.721 49.629,196.146 49.789 M208.199 49.841 C 208.058 50.036,207.992 54.917,208.112 56.302 C 208.131 56.531,211.042 56.493,211.042 56.264 C 211.042 56.052,210.716 55.938,209.541 55.740 L 208.769 55.610 208.860 52.827 C 208.951 50.020,208.744 49.086,208.199 49.841 M184.300 50.103 C 184.254 50.223,184.200 51.350,184.180 52.608 C 184.160 53.867,184.134 55.036,184.122 55.208 C 184.067 56.021,184.192 56.458,184.479 56.458 C 184.710 56.458,184.797 56.200,184.812 55.469 C 184.850 53.660,184.991 53.438,186.093 53.438 C 187.519 53.438,188.221 51.874,187.450 50.417 C 187.155 49.857,184.496 49.592,184.300 50.103 M188.345 53.109 C 188.346 55.941,188.394 56.458,188.658 56.458 C 189.072 56.458,189.015 49.984,188.599 49.845 C 188.405 49.781,188.344 50.561,188.345 53.109 M190.365 49.943 L 189.583 50.025 189.583 52.808 C 189.583 55.756,189.661 56.250,190.126 56.250 C 190.349 56.250,190.417 55.884,190.417 54.688 L 190.417 53.125 191.016 53.125 C 191.856 53.125,192.115 53.542,192.240 55.102 C 192.316 56.055,192.433 56.458,192.633 56.458 C 193.057 56.458,193.030 53.686,192.602 53.331 C 192.407 53.170,192.357 52.981,192.470 52.837 C 192.818 52.396,192.881 50.667,192.566 50.217 C 192.267 49.791,192.065 49.766,190.365 49.943 M193.719 49.986 C 193.550 50.484,193.867 56.461,194.063 56.461 C 194.372 56.460,194.342 49.956,194.031 49.852 C 193.899 49.807,193.759 49.868,193.719 49.986 M199.059 50.005 C 198.624 50.710,198.695 55.570,199.148 56.023 C 199.768 56.643,201.788 56.587,202.194 55.938 C 202.815 54.946,202.730 50.104,202.091 50.104 C 201.854 50.104,201.788 50.565,201.762 52.396 C 201.719 55.485,201.651 55.664,200.555 55.584 L 199.688 55.521 199.678 52.917 C 199.666 49.678,199.563 49.190,199.059 50.005 M204.747 51.086 C 204.567 51.692,204.178 52.984,203.881 53.958 C 203.585 54.932,203.340 55.893,203.338 56.094 C 203.329 56.790,203.869 56.454,204.173 55.573 C 204.592 54.362,206.201 54.200,206.496 55.338 C 206.657 55.959,207.200 56.619,207.392 56.427 C 207.501 56.319,207.112 54.772,206.300 52.084 C 205.582 49.705,205.224 49.474,204.747 51.086 M186.741 51.426 C 186.683 53.559,185.000 53.554,185.000 51.420 L 185.000 50.184 185.885 50.248 L 186.771 50.313 186.741 51.426 M191.998 51.282 C 191.717 53.039,190.417 53.183,190.417 51.458 L 190.417 50.417 191.277 50.417 L 192.137 50.417 191.998 51.282 M205.905 53.021 L 206.225 53.958 205.508 53.958 C 204.697 53.958,204.706 53.979,205.033 52.889 C 205.345 51.848,205.514 51.874,205.905 53.021 M183.477 87.218 C 183.300 87.394,183.285 95.047,183.460 95.504 C 183.874 96.583,184.167 95.768,184.185 93.490 L 184.203 91.146 184.621 93.021 C 185.225 95.729,185.887 96.195,186.152 94.097 C 186.381 92.281,186.863 91.467,186.850 92.917 C 186.827 95.424,187.039 96.330,187.486 95.636 C 187.915 94.968,187.740 87.292,187.296 87.292 C 187.013 87.292,186.826 87.522,186.660 88.073 C 186.213 89.566,185.636 92.191,185.618 92.813 C 185.609 93.156,185.254 92.039,184.829 90.329 C 184.113 87.450,183.850 86.844,183.477 87.218 M204.882 89.231 C 204.826 89.377,204.806 90.940,204.838 92.704 L 204.896 95.911 206.249 95.855 C 207.704 95.796,207.898 95.731,207.581 95.414 C 207.406 95.239,207.112 95.177,205.729 95.023 C 205.599 95.009,205.538 93.916,205.568 92.104 C 205.607 89.680,205.563 89.188,205.299 89.086 C 205.126 89.020,204.938 89.085,204.882 89.231 M188.468 90.260 C 188.215 92.366,188.308 95.345,188.635 95.616 C 189.091 95.995,191.350 95.684,191.021 95.288 C 190.883 95.121,190.388 95.000,189.844 95.000 L 188.906 95.000 189.036 94.349 C 189.108 93.991,189.167 93.428,189.167 93.099 C 189.167 92.604,189.254 92.500,189.670 92.500 C 189.948 92.500,190.322 92.443,190.503 92.374 C 191.065 92.158,190.640 91.875,189.753 91.875 C 188.916 91.875,188.908 91.868,189.036 91.224 C 189.108 90.866,189.167 90.400,189.167 90.189 C 189.167 89.886,189.387 89.777,190.226 89.666 C 191.542 89.491,191.184 89.174,189.664 89.170 L 188.600 89.167 188.468 90.260 M194.997 91.094 C 194.995 92.154,194.920 93.136,194.831 93.278 C 194.679 93.516,193.512 91.462,192.932 89.935 C 192.331 88.355,191.880 90.181,191.876 94.206 C 191.875 95.473,192.106 96.089,192.452 95.743 C 192.524 95.670,192.635 94.608,192.698 93.383 L 192.813 91.156 193.630 93.026 C 195.259 96.752,195.625 96.636,195.625 92.396 C 195.625 89.664,195.577 89.167,195.313 89.167 C 195.057 89.167,194.999 89.521,194.997 91.094 M196.510 89.305 C 196.032 89.498,196.243 89.765,196.927 89.831 L 197.604 89.896 197.708 92.900 C 197.783 95.041,197.887 95.928,198.073 95.990 C 198.383 96.093,198.371 96.240,198.335 92.682 L 198.306 89.844 198.841 89.710 C 199.824 89.463,199.393 89.166,198.073 89.183 C 197.357 89.192,196.654 89.247,196.510 89.305 M201.080 91.817 C 199.991 95.215,199.868 95.833,200.279 95.833 C 200.460 95.833,200.713 95.464,200.884 94.948 C 201.296 93.708,202.973 93.460,203.202 94.605 C 203.346 95.323,203.678 95.833,204.002 95.833 C 204.298 95.833,203.991 94.252,203.434 92.917 C 203.171 92.286,202.891 91.331,202.811 90.794 C 202.483 88.600,202.024 88.871,201.080 91.817 M202.801 92.865 C 202.932 93.291,202.877 93.333,202.188 93.333 C 201.369 93.333,201.369 93.330,201.920 91.875 L 202.117 91.354 202.387 91.875 C 202.535 92.161,202.721 92.607,202.801 92.865 M180.543 130.797 C 180.372 131.074,180.364 138.608,180.534 139.036 C 180.684 139.413,183.104 139.465,183.470 139.099 C 183.753 138.816,183.229 138.542,182.406 138.542 C 181.297 138.542,181.175 138.304,181.367 136.515 C 181.499 135.279,181.537 135.208,182.056 135.205 C 182.357 135.203,182.733 135.120,182.891 135.020 C 183.349 134.730,182.956 134.375,182.175 134.375 L 181.458 134.375 181.458 132.939 C 181.458 131.411,181.568 131.250,182.609 131.250 C 183.203 131.250,183.459 130.926,183.003 130.751 C 182.515 130.564,180.666 130.598,180.543 130.797 M190.156 132.827 L 189.583 133.138 189.583 135.929 C 189.583 139.275,189.638 139.375,191.466 139.375 C 193.074 139.375,193.139 139.240,193.018 136.134 C 192.877 132.533,192.181 131.729,190.156 132.827 M194.264 132.710 C 193.626 132.820,193.385 133.414,193.958 133.466 C 194.130 133.481,194.432 133.504,194.630 133.518 C 194.948 133.539,194.995 133.873,195.046 136.510 C 195.095 138.985,195.156 139.479,195.417 139.479 C 195.683 139.479,195.719 139.030,195.659 136.406 L 195.589 133.333 196.116 133.333 C 196.794 133.333,197.000 132.998,196.490 132.725 C 196.094 132.513,195.436 132.509,194.264 132.710 M199.323 132.827 L 198.750 133.138 198.750 135.929 C 198.750 139.275,198.805 139.375,200.633 139.375 C 202.241 139.375,202.306 139.240,202.184 136.134 C 202.044 132.533,201.348 131.729,199.323 132.827 M212.014 132.639 C 211.822 132.831,211.838 139.333,212.031 139.424 C 212.117 139.464,212.825 139.462,213.605 139.418 C 215.300 139.323,215.396 138.949,213.798 138.662 L 212.730 138.469 212.817 135.759 C 212.909 132.910,212.670 131.982,212.014 132.639 M184.307 132.865 C 183.915 133.524,184.088 139.275,184.501 139.334 C 184.905 139.391,184.955 139.258,185.128 137.667 L 185.316 135.938 185.718 137.396 C 186.086 138.730,186.322 139.155,186.702 139.163 C 186.840 139.167,187.166 138.320,187.780 136.354 L 188.106 135.313 187.988 137.195 C 187.890 138.764,187.925 139.123,188.203 139.354 C 188.689 139.756,188.734 139.506,188.798 136.042 C 188.875 131.888,188.530 131.940,186.959 136.319 C 186.538 137.491,186.477 137.426,185.833 135.104 C 185.208 132.855,184.730 132.152,184.307 132.865 M197.355 135.925 C 197.344 138.921,197.563 140.169,197.973 139.437 C 198.262 138.920,198.007 132.817,197.694 132.756 C 197.409 132.701,197.366 133.105,197.355 135.925 M203.173 132.969 C 202.761 133.478,202.612 139.143,203.007 139.294 C 203.492 139.480,203.487 139.497,203.638 137.193 C 203.805 134.643,203.791 134.658,204.456 136.394 C 205.391 138.832,206.185 139.763,206.540 138.837 C 206.881 137.949,206.675 132.676,206.302 132.749 C 205.911 132.825,205.911 132.827,205.864 135.260 C 205.824 137.351,205.673 137.299,204.510 134.792 C 203.471 132.555,203.489 132.579,203.173 132.969 M208.237 135.260 C 207.142 138.741,207.070 139.105,207.417 139.392 C 207.640 139.578,207.734 139.545,207.841 139.242 C 208.438 137.556,208.486 137.500,209.342 137.500 C 210.160 137.500,210.417 137.732,210.417 138.469 C 210.417 138.827,210.909 139.375,211.230 139.375 C 211.499 139.375,211.337 138.429,210.801 136.875 C 210.584 136.245,210.260 135.167,210.080 134.479 C 209.766 133.273,209.479 132.708,209.182 132.708 C 209.104 132.708,208.679 133.857,208.237 135.260 M192.186 134.427 C 192.259 135.029,192.289 136.266,192.253 137.178 L 192.188 138.834 191.302 138.893 L 190.417 138.952 190.417 136.392 C 190.417 133.626,190.519 133.333,191.485 133.333 C 192.015 133.333,192.062 133.407,192.186 134.427 M201.353 134.427 C 201.426 135.029,201.456 136.266,201.420 137.178 L 201.354 138.834 200.469 138.893 L 199.583 138.952 199.583 136.392 C 199.583 133.626,199.685 133.333,200.652 133.333 C 201.182 133.333,201.229 133.407,201.353 134.427 M209.685 135.755 C 210.116 136.787,210.092 136.875,209.375 136.875 C 208.663 136.875,208.667 136.887,208.991 135.805 C 209.286 134.820,209.294 134.820,209.685 135.755 M182.791 175.501 C 182.445 176.403,182.596 184.051,182.961 184.124 C 183.275 184.186,183.325 183.951,183.378 182.149 L 183.438 180.104 184.543 179.993 C 185.916 179.855,186.034 179.673,186.038 177.689 C 186.042 175.775,185.836 175.519,184.117 175.308 C 183.116 175.185,182.901 175.216,182.791 175.501 M185.165 177.544 L 185.104 179.047 184.375 179.197 C 183.418 179.394,183.380 179.324,183.493 177.552 L 183.589 176.042 184.408 176.042 L 185.227 176.042 185.165 177.544 M194.306 177.388 C 194.097 177.599,193.691 178.296,193.405 178.938 L 192.884 180.104 192.301 178.830 C 191.541 177.170,190.623 176.528,191.330 178.151 C 191.892 179.441,192.255 180.925,192.317 182.188 C 192.382 183.522,192.569 183.958,193.075 183.958 C 193.333 183.958,193.368 183.762,193.266 182.897 C 193.155 181.967,193.243 181.594,193.980 179.871 C 194.878 177.768,195.023 176.669,194.306 177.388 M202.292 177.238 C 201.162 177.367,201.170 177.342,200.932 181.262 C 200.770 183.933,200.806 183.984,202.836 183.908 L 204.271 183.854 204.271 183.128 C 204.271 182.602,204.170 182.382,203.906 182.331 C 203.634 182.279,203.542 182.399,203.542 182.809 C 203.542 183.325,203.490 183.354,202.656 183.293 L 201.771 183.229 201.822 180.643 C 201.850 179.221,201.897 178.038,201.926 178.015 C 202.343 177.679,203.588 177.738,203.683 178.098 C 203.847 178.727,204.375 178.841,204.375 178.248 C 204.375 177.439,203.644 177.085,202.292 177.238 M209.884 177.310 C 209.736 177.550,209.755 183.783,209.904 183.932 C 210.024 184.052,212.566 183.962,212.694 183.834 C 212.970 183.558,212.109 183.248,210.764 183.139 C 210.668 183.131,210.607 182.352,210.628 181.406 C 210.714 177.599,210.485 176.339,209.884 177.310 M186.985 177.539 C 186.695 178.369,186.781 184.063,187.083 184.063 C 187.319 184.063,187.405 183.780,187.433 182.917 C 187.454 182.286,187.478 181.583,187.486 181.354 C 187.498 180.990,187.644 180.938,188.646 180.938 L 189.792 180.938 189.795 182.188 C 189.798 183.377,190.035 184.209,190.261 183.824 C 190.563 183.312,190.514 177.396,190.208 177.396 C 189.970 177.396,189.871 177.743,189.792 178.854 C 189.721 179.843,189.604 180.306,189.427 180.292 C 189.284 180.280,188.792 180.257,188.333 180.240 L 187.500 180.208 187.500 178.866 C 187.500 177.631,187.212 176.889,186.985 177.539 M195.833 177.708 C 194.991 178.551,195.338 179.551,197.004 181.087 C 198.244 182.230,198.323 183.239,197.175 183.272 C 196.573 183.289,196.397 183.198,196.242 182.792 C 196.022 182.212,195.417 182.116,195.417 182.662 C 195.417 183.539,196.018 183.980,197.141 183.929 C 199.356 183.828,199.632 182.141,197.723 180.378 C 196.711 179.442,196.136 178.517,196.402 178.251 C 196.750 177.903,198.079 178.136,198.191 178.564 C 198.320 179.055,198.819 179.001,198.919 178.485 C 199.124 177.428,196.719 176.823,195.833 177.708 M199.552 177.486 C 199.383 177.984,199.700 183.961,199.896 183.963 C 200.386 183.970,200.355 177.511,199.865 177.350 C 199.733 177.306,199.592 177.368,199.552 177.486 M206.779 177.486 C 206.704 177.608,206.686 177.708,206.741 177.708 C 206.795 177.708,206.654 178.201,206.429 178.802 C 205.889 180.239,205.000 183.257,205.000 183.649 C 205.000 184.308,205.605 183.914,205.884 183.073 C 206.248 181.978,208.125 181.537,208.125 182.546 C 208.125 183.084,208.656 183.958,208.983 183.958 C 209.301 183.958,208.971 182.164,208.426 180.930 C 208.165 180.342,207.888 179.429,207.809 178.901 C 207.662 177.922,207.039 177.066,206.779 177.486 M207.572 180.521 L 207.891 181.458 207.192 181.458 L 206.492 181.458 206.706 180.677 C 207.083 179.297,207.151 179.285,207.572 180.521 " stroke="none" fill="#271b1a" fill-rule="evenodd"></path></g></svg>